<svg xmlns="http://www.w3.org/2000/svg" width="24" height="24" viewBox="0 0 24 24" fill="none"><g transform="matrix(1 0 0 1 0.429 0.428)"><g transform="matrix(1 0 0 1 0 0)"><path d="M11.571 0C7.985 0 5.062 1.011 3.036 3.036C1.011 5.062 0 7.985 0 11.571C0 15.158 1.011 18.081 3.036 20.107C5.062 22.131 7.985 23.143 11.571 23.143C15.158 23.143 18.081 22.131 20.107 20.107C22.131 18.081 23.143 15.158 23.143 11.571C23.143 7.985 22.131 5.062 20.107 3.036C18.081 1.011 15.158 0 11.571 0Z" fill="#ddd7fe"/></g><g transform="matrix(1 0 0 1 6 6)"><path d="M2.195 0.377C1.693 -0.126 0.879 -0.126 0.377 0.377C-0.126 0.879 -0.126 1.693 0.377 2.195L3.753 5.571L0.377 8.948C-0.126 9.45 -0.126 10.264 0.377 10.766C0.879 11.268 1.693 11.268 2.195 10.766L5.571 7.39L8.948 10.766C9.45 11.268 10.264 11.268 10.766 10.766C11.268 10.264 11.268 9.45 10.766 8.948L7.39 5.571L10.766 2.195C11.268 1.693 11.268 0.879 10.766 0.377C10.264 -0.126 9.45 -0.126 8.948 0.377L5.571 3.753L2.195 0.377Z" fill="#6e54ff" fill-rule="evenodd"/></g></g></svg>