<svg xmlns="http://www.w3.org/2000/svg" width="31.936" height="32.451" viewBox="0 0 31.936 32.451" fill="none"><g transform="matrix(1 0 0 1 0 0)"><path d="M14.749 6.054C15.017 4.723 16.919 4.723 17.187 6.054L18.518 12.664C18.617 13.153 18.997 13.535 19.484 13.636L26.08 15.008C27.401 15.282 27.401 17.169 26.08 17.443L19.484 18.815C18.997 18.916 18.617 19.298 18.518 19.787L17.187 26.397C16.919 27.728 15.017 27.728 14.749 26.397L13.418 19.787C13.319 19.298 12.939 18.916 12.452 18.815L5.856 17.443C4.535 17.169 4.535 15.282 5.856 15.008L12.452 13.636C12.939 13.535 13.319 13.153 13.418 12.664L14.749 6.054Z" fill="#facc15"/></g></svg>